<?xml version="1.0" ?><!DOCTYPE svg  PUBLIC '-//W3C//DTD SVG 1.1//EN'  'http://www.w3.org/Graphics/SVG/1.1/DTD/svg11.dtd'><!-- Uploaded to: SVG Repo, www.svgrepo.com, Generator: SVG Repo Mixer Tools -->
<svg fill="#000000" width="800px" height="800px" viewBox="0 0 512 512" enable-background="new 0 0 512 512" id="currency_x5F_exchange" version="1.1" xml:space="preserve" xmlns="http://www.w3.org/2000/svg" xmlns:xlink="http://www.w3.org/1999/xlink"><path d="M146.524,43.932c-56.66,0-102.593,45.932-102.593,102.593c0,56.66,45.933,102.593,102.593,102.593  s102.593-45.933,102.593-102.593C249.117,89.864,203.185,43.932,146.524,43.932z M146.524,223.091  c-42.218,0-76.566-34.348-76.566-76.566c0-42.218,34.349-76.566,76.566-76.566s76.565,34.348,76.565,76.566  C223.09,188.743,188.742,223.091,146.524,223.091z"/><path d="M146.524,83.454c-34.778,0-63.071,28.293-63.071,63.071s28.293,63.071,63.071,63.071c34.777,0,63.07-28.293,63.07-63.071  S181.302,83.454,146.524,83.454z M153.333,178.796v8.24h-11.237v-7.824h-9.484v-11.238h16.778c4.306,0,7.808-3.502,7.808-7.809  c0-4.306-3.502-7.808-7.808-7.808h-5.731h-1.414v-0.072c-9.841-0.729-17.631-8.95-17.631-18.975c0-9.974,7.711-18.166,17.482-18.966  v-7.904h11.237v7.825h7.104v11.237h-16.778c-4.305,0-7.807,3.502-7.807,7.808c0,4.306,3.502,7.809,7.807,7.809h5.731h1.414v0.072  c9.841,0.729,17.631,8.95,17.631,18.973C168.435,169.315,161.947,176.974,153.333,178.796z"/><path d="M365.476,262.883c-56.66,0-102.593,45.933-102.593,102.594c0,56.66,45.933,102.592,102.593,102.592  s102.593-45.932,102.593-102.592C468.068,308.815,422.136,262.883,365.476,262.883z M365.476,442.042  c-42.218,0-76.566-34.349-76.566-76.565c0-42.219,34.349-76.566,76.566-76.566s76.565,34.348,76.565,76.566  C442.041,407.693,407.693,442.042,365.476,442.042z"/><path d="M365.476,302.405c-34.777,0-63.071,28.293-63.071,63.071c0,34.777,28.294,63.07,63.071,63.07s63.07-28.293,63.07-63.07  C428.546,330.698,400.253,302.405,365.476,302.405z M370.928,400.969c-13.809,0-25.792-7.932-31.657-19.473h-12.446v-11.087h8.961  c-0.226-1.614-0.351-3.259-0.351-4.933c0-1.579,0.114-3.132,0.315-4.658h-8.926v-11.086h12.306  c5.813-11.691,17.879-19.749,31.798-19.749c6.929,0,13.643,1.999,19.417,5.777l-6.072,9.276c-3.964-2.595-8.58-3.967-13.345-3.967  c-7.46,0-14.139,3.372-18.619,8.662h6.023v11.086h-11.353c-0.293,1.51-0.458,3.064-0.458,4.658c0,1.689,0.174,3.339,0.502,4.933  h11.309v11.087h-5.773c4.479,5.127,11.043,8.386,18.369,8.386c5.154,0,10.081-1.587,14.248-4.587l6.48,8.995  C385.59,398.66,378.423,400.969,370.928,400.969z"/><path d="M166.67,328.765h-30.011c6.45,31.492,34.339,55.263,67.709,55.263h34.442v-28.919h-34.442  C187.07,355.108,172.33,344.12,166.67,328.765z"/><path d="M164.252,317.178h28.326l-42.903-48.352l-42.903,48.352h28.504c0,0.006,0,0.013,0.001,0.02h28.978  C164.254,317.19,164.252,317.184,164.252,317.178z"/><path d="M348.169,182.475h30.005c-6.441-31.502-34.336-55.282-67.715-55.282h-34.441v28.918h34.441  C327.767,156.111,342.514,167.109,348.169,182.475z"/><polygon points="408.057,194.043 379.555,194.043 379.555,194.042 350.578,194.042 350.578,194.043 322.25,194.043 365.153,242.394   "/></svg>